<svg width="300" height="64" viewBox="0 0 300 64" fill="none" xmlns="http://www.w3.org/2000/svg">
<path fill-rule="evenodd" clip-rule="evenodd" d="M44.4994 7.57104C35.9425 7.43982 28.8324 13.1637 28.145 20.5256L60.304 20.4683C59.5987 13.347 52.8425 7.69899 44.4994 7.57104Z" stroke="black" stroke-width="2" stroke-linecap="round" stroke-linejoin="round" stroke-dasharray="12.55 25.1"/>
<path d="M8.07739 0.000982826C7.37972 -0.00455868 6.68384 0.0114481 6.01094 0.0977678C5.09014 0.215884 4.19691 0.496016 3.40695 0.902817C1.64487 1.81023 0.414926 3.35133 0.110699 5.05056C-0.0795621 6.11331 0.0331427 7.23523 0.0331427 8.30793V23.752V41.5172V45.2238C0.0331427 45.8687 -0.0142775 46.5288 0.0597224 47.1707C0.163338 48.0696 0.521291 48.9441 1.08493 49.7165C1.787 50.6787 2.82933 51.448 4.041 51.9489C4.44035 52.1139 4.91043 52.2901 5.35428 52.3501C5.78511 52.4083 6.27601 52.3561 6.71279 52.3561H9.42993H23.5364H28.3367H29.8085C30.0367 52.3561 30.3139 52.391 30.5332 52.3374C30.5787 52.5014 30.5079 52.6976 30.4746 52.8616C30.394 53.2591 30.2884 53.6526 30.1578 54.041C29.6036 55.6893 28.5955 57.2226 27.1839 58.4776C26.7986 58.8202 26.3947 59.1432 25.9593 59.4428C25.8047 59.5492 25.6095 59.7256 25.4158 59.7774C25.2765 59.8146 25.0857 59.7879 24.9403 59.7879H23.9441H21.3401C20.768 59.7879 20.1791 59.7566 19.6193 59.8718C18.8797 60.0239 18.1607 60.4292 17.9416 61.0609C17.8389 61.3568 17.8757 61.6733 17.8757 61.9781C17.8757 62.322 17.8599 62.6538 18.0526 62.9704C18.6629 63.9729 20.0563 64 21.2269 64H29.5368H60.784H68.0751C69.2129 64 70.4688 63.9692 71.1361 63.064C71.3881 62.7221 71.381 62.3637 71.381 61.9781C71.381 61.7152 71.4183 61.4309 71.3486 61.1732C71.1802 60.5511 70.5561 60.1076 69.8411 59.9195C69.1773 59.7449 68.4682 59.7879 67.7808 59.7879H64.6559C64.2236 59.7879 63.697 59.856 63.2749 59.7806C63.0203 59.7351 62.7487 59.5757 62.5276 59.466C61.9545 59.1818 61.4158 58.85 60.9426 58.4588C59.0189 56.8684 58.0188 54.5658 57.9083 52.3375C58.1212 52.3895 58.3889 52.3561 58.6104 52.3561H60.0368H64.6785H78.989H81.8193C82.2684 52.3561 82.7813 52.4132 83.2232 52.3474C84.4451 52.1657 85.657 51.4845 86.5061 50.7649C87.6067 49.8322 88.3033 48.5918 88.4925 47.3017C88.6196 46.4352 88.5443 45.5345 88.5443 44.6621V39.4955V13.9426V7.80247C88.5443 6.96052 88.6151 6.09309 88.4925 5.25661C88.3711 4.42854 88.0451 3.63832 87.5415 2.91664C86.468 1.37816 84.509 0.312864 82.3854 0.0763294C81.1463 -0.0616883 79.8311 0.0337475 78.5815 0.0337475H68.4147H21.9968H10.1546C9.47448 0.0337475 8.77505 0.0065357 8.07739 0.000982826ZM7.93319 1.92213C8.38975 1.9271 8.84714 1.94313 9.29415 1.94313H21.2948H68.46H79.5324C80.4058 1.94313 81.3163 1.88261 82.1816 1.98851C83.2239 2.11607 84.2613 2.55984 84.9601 3.21606C85.5636 3.78273 85.9929 4.45519 86.1609 5.20035C86.33 5.95064 86.2347 6.76083 86.2347 7.52168V13.1938V39.3643L69.5438 39.3645V42.809H86.2347V45.4297C86.2347 46.0382 86.2928 46.662 86.1797 47.2642C85.9834 48.3101 85.2507 49.263 84.2195 49.8822C83.8536 50.1019 83.4134 50.3133 82.974 50.4132C82.7995 50.4529 82.5878 50.4279 82.408 50.4279H81.2986H77.6757H65.924H27.7934H12.3282H7.66377H6.2825C6.05237 50.4279 5.77912 50.4612 5.55805 50.4025C5.1248 50.2875 4.69989 50.097 4.33533 49.8732C3.324 49.2524 2.60741 48.3342 2.3979 47.3017C2.26951 46.6689 2.32003 46.0132 2.32003 45.3736V42.809H19.0227V39.3645H2.32003V13.381V7.37188C2.32003 5.95738 2.25441 4.58739 3.3982 3.42195C4.18881 2.6164 5.33076 2.09052 6.577 1.96722C7.02092 1.9233 7.47663 1.91717 7.93319 1.92213ZM32.9106 52.3374L33.6352 52.3561H35.1069H39.9073H55.6215C55.6215 53.1026 55.7928 53.8759 55.9917 54.6025C56.603 56.8359 57.9144 58.9512 60.1048 60.4021C60.687 60.7877 61.3167 61.1266 61.9842 61.4026C62.2362 61.5068 62.5044 61.6406 62.7766 61.7042C62.9671 61.7487 63.2135 61.7161 63.4106 61.7161H64.7013H68.1429C68.3758 61.7161 68.8339 61.6426 69.0415 61.7301C69.1216 61.7639 69.1163 61.9678 69.0804 62.0263C69.0233 62.1193 68.6592 62.0718 68.5506 62.0718H66.875H59.901H30.7143H22.6534H20.7741C20.6555 62.0718 20.2124 62.126 20.1699 62.0114C20.0131 61.5886 20.7151 61.7161 21.0232 61.7161H24.0573H25.4838C25.6795 61.7161 25.9549 61.757 26.1404 61.7025C26.3483 61.6413 26.5538 61.4762 26.7291 61.3675C27.1865 61.0839 27.6186 60.7819 28.0424 60.4651C29.9203 59.0608 31.3204 57.2187 32.1256 55.239C32.3836 54.6047 32.5763 53.9503 32.7199 53.2921C32.7673 53.0747 32.8031 52.8557 32.8398 52.637C32.8562 52.5398 32.8489 52.4225 32.9106 52.3374Z" fill="black"/>
<path d="M67.631 34.6756H20.9355V44.7019H67.631V34.6756Z" stroke="black" stroke-width="2" stroke-linecap="round" stroke-linejoin="round"/>
<path d="M39.3772 38.2973H26.1958V41.0802H39.3772V38.2973Z" fill="black" stroke="black" stroke-width="2" stroke-linecap="round" stroke-linejoin="round"/>
<path d="M52.3794 40.9602C53.1354 40.9602 53.7482 40.3909 53.7482 39.6887C53.7482 38.9865 53.1354 38.4173 52.3794 38.4173C51.6235 38.4173 51.0106 38.9865 51.0106 39.6887C51.0106 40.3909 51.6235 40.9602 52.3794 40.9602Z" fill="black" stroke="black" stroke-width="2" stroke-linecap="round" stroke-linejoin="round"/>
<path d="M61.0447 40.9602C61.8007 40.9602 62.4135 40.3909 62.4135 39.6887C62.4135 38.9865 61.8007 38.4173 61.0447 38.4173C60.2887 38.4173 59.6759 38.9865 59.6759 39.6887C59.6759 40.3909 60.2887 40.9602 61.0447 40.9602Z" fill="black" stroke="black" stroke-width="2" stroke-linecap="round" stroke-linejoin="round"/>
<path d="M67.631 20.4841H20.9355V30.5104H67.631V20.4841Z" stroke="black" stroke-width="2" stroke-linecap="round" stroke-linejoin="round"/>
<path d="M39.3772 24.1058H26.1958V26.8887H39.3772V24.1058Z" fill="black" stroke="black" stroke-width="2" stroke-linecap="round" stroke-linejoin="round"/>
<path d="M52.3794 26.7687C53.1354 26.7687 53.7482 26.1995 53.7482 25.4973C53.7482 24.7951 53.1354 24.2258 52.3794 24.2258C51.6235 24.2258 51.0106 24.7951 51.0106 25.4973C51.0106 26.1995 51.6235 26.7687 52.3794 26.7687Z" fill="black" stroke="black" stroke-width="2" stroke-linecap="round" stroke-linejoin="round"/>
<path d="M61.0447 26.7687C61.8007 26.7687 62.4135 26.1995 62.4135 25.4973C62.4135 24.7951 61.8007 24.2258 61.0447 24.2258C60.2887 24.2258 59.6759 24.7951 59.6759 25.4973C59.6759 26.1995 60.2887 26.7687 61.0447 26.7687Z" fill="black" stroke="black" stroke-width="2" stroke-linecap="round" stroke-linejoin="round"/>
<path d="M117.783 10.378C118.67 10.378 119.506 10.34 120.291 10.264C121.102 10.188 121.938 10.15 122.799 10.15C126.371 10.15 128.993 11.0367 130.665 12.81C132.337 14.5833 133.173 17.1547 133.173 20.524C133.173 24.4 132.198 27.3387 130.247 29.34C128.322 31.316 125.7 32.266 122.381 32.19C121.976 32.19 121.507 32.1773 120.975 32.152C120.468 32.1267 119.936 32.0887 119.379 32.038C118.822 32.0127 118.302 32 117.821 32H113.337V30.594L115.579 30.176C116.035 30.1 116.263 29.834 116.263 29.378V13C116.263 12.62 116.06 12.3667 115.655 12.24L113.337 11.784V10.378H117.783ZM119.341 30.366C119.721 30.4673 120.24 30.5433 120.899 30.594C121.583 30.6447 122.178 30.6573 122.685 30.632C124.205 30.5813 125.497 30.2267 126.561 29.568C127.65 28.9093 128.474 27.8833 129.031 26.49C129.588 25.0967 129.867 23.298 129.867 21.094C129.867 17.8767 129.234 15.508 127.967 13.988C126.7 12.468 124.75 11.708 122.115 11.708C121.532 11.708 121 11.7333 120.519 11.784C120.038 11.8347 119.645 11.8727 119.341 11.898V30.366ZM145.051 11.784L142.885 12.24C142.404 12.316 142.163 12.6073 142.163 13.114V29.302C142.163 29.8087 142.404 30.1 142.885 30.176L145.051 30.594V32H136.159V30.594L138.363 30.176C138.845 30.1 139.085 29.8213 139.085 29.34V13.114C139.085 12.6073 138.845 12.316 138.363 12.24L136.159 11.784V10.378H145.051V11.784ZM157.311 32.304C155.284 32.304 153.574 31.8607 152.181 30.974C150.813 30.062 149.774 28.7953 149.065 27.174C148.381 25.5273 148.039 23.6147 148.039 21.436C148.039 18.9027 148.482 16.8 149.369 15.128C150.281 13.4307 151.535 12.164 153.131 11.328C154.752 10.4667 156.639 10.036 158.793 10.036C159.933 10.036 161.06 10.15 162.175 10.378C163.289 10.5807 164.303 10.9227 165.215 11.404C165.265 12.2147 165.253 13.0253 165.177 13.836C165.126 14.6213 165.05 15.4193 164.949 16.23H163.125L162.479 13.456C162.403 13.1773 162.314 12.962 162.213 12.81C162.111 12.658 161.959 12.5187 161.757 12.392C161.377 12.164 160.883 11.974 160.275 11.822C159.692 11.6447 159.021 11.556 158.261 11.556C156.943 11.556 155.778 11.898 154.765 12.582C153.751 13.266 152.953 14.3173 152.371 15.736C151.813 17.1293 151.535 18.928 151.535 21.132C151.535 22.88 151.75 24.4507 152.181 25.844C152.637 27.2373 153.359 28.3393 154.347 29.15C155.335 29.9607 156.639 30.366 158.261 30.366C159.35 30.366 160.363 30.1633 161.301 29.758C162.238 29.3273 162.998 28.6053 163.581 27.592L164.037 28.998C163.327 30.062 162.415 30.8853 161.301 31.468C160.211 32.0253 158.881 32.304 157.311 32.304ZM164.721 32.152L162.783 30.138H162.441V22.994L158.641 22.728V21.094H167.115V22.728L165.481 22.994V31.81L164.721 32.152ZM179.489 11.784L177.323 12.24C176.841 12.316 176.601 12.6073 176.601 13.114V29.302C176.601 29.8087 176.841 30.1 177.323 30.176L179.489 30.594V32H170.597V30.594L172.801 30.176C173.282 30.1 173.523 29.8213 173.523 29.34V13.114C173.523 12.6073 173.282 12.316 172.801 12.24L170.597 11.784V10.378H179.489V11.784ZM197.138 26.11C197.138 27.1487 196.872 28.1493 196.34 29.112C195.833 30.0493 195.023 30.822 193.908 31.43C192.819 32.0127 191.4 32.304 189.652 32.304C188.183 32.304 186.865 32.1267 185.7 31.772C184.535 31.392 183.597 30.9867 182.888 30.556C182.863 29.644 182.863 28.732 182.888 27.82C182.939 26.908 183.027 26.0087 183.154 25.122H184.978L185.51 28.352C185.51 28.504 185.548 28.6687 185.624 28.846C185.725 28.998 185.852 29.1627 186.004 29.34C186.384 29.6947 186.903 30.024 187.562 30.328C188.246 30.632 189.019 30.784 189.88 30.784C191.223 30.784 192.249 30.4547 192.958 29.796C193.667 29.1373 194.022 28.2253 194.022 27.06C194.022 26.1733 193.819 25.464 193.414 24.932C193.009 24.3747 192.439 23.8933 191.704 23.488C190.969 23.0827 190.121 22.652 189.158 22.196C188.246 21.7907 187.334 21.322 186.422 20.79C185.535 20.258 184.788 19.5993 184.18 18.814C183.572 18.0033 183.268 16.9647 183.268 15.698C183.268 14.0767 183.863 12.734 185.054 11.67C186.245 10.5807 188.005 10.036 190.336 10.036C191.349 10.036 192.363 10.1373 193.376 10.34C194.389 10.5427 195.263 10.8213 195.998 11.176C196.074 12.088 196.087 12.9747 196.036 13.836C195.985 14.672 195.909 15.4953 195.808 16.306H194.022L193.49 13.494C193.439 13.2913 193.376 13.114 193.3 12.962C193.224 12.7847 193.085 12.62 192.882 12.468C192.603 12.2147 192.185 11.9993 191.628 11.822C191.071 11.6193 190.463 11.518 189.804 11.518C188.613 11.518 187.701 11.8093 187.068 12.392C186.46 12.9493 186.156 13.7347 186.156 14.748C186.156 15.6093 186.346 16.306 186.726 16.838C187.131 17.37 187.714 17.8513 188.474 18.282C189.234 18.7127 190.159 19.1813 191.248 19.688C192.236 20.1693 193.173 20.6887 194.06 21.246C194.972 21.778 195.707 22.4367 196.264 23.222C196.847 23.982 197.138 24.9447 197.138 26.11ZM203.404 32V30.594L206.672 30.1C207.179 30.024 207.432 29.7453 207.432 29.264V11.936H205.798C205.165 11.936 204.595 11.9613 204.088 12.012C203.581 12.0627 203.201 12.126 202.948 12.202C202.517 12.354 202.264 12.6453 202.188 13.076L201.276 16.952H199.642C199.541 15.7867 199.503 14.672 199.528 13.608C199.553 12.544 199.629 11.4673 199.756 10.378H218.148C218.249 11.4673 218.3 12.544 218.3 13.608C218.325 14.672 218.287 15.7867 218.186 16.952H216.552L215.64 13.038C215.615 12.81 215.539 12.6327 215.412 12.506C215.285 12.3793 215.133 12.278 214.956 12.202C214.348 12.0247 213.411 11.936 212.144 11.936H210.472V29.264C210.472 29.7453 210.725 30.024 211.232 30.1L214.462 30.594V32H203.404ZM229.631 32.304C226.641 32.304 224.387 31.3413 222.867 29.416C221.372 27.4907 220.625 24.8687 220.625 21.55C220.625 19.0673 221.03 16.9773 221.841 15.28C222.651 13.5573 223.779 12.2527 225.223 11.366C226.692 10.4793 228.402 10.036 230.353 10.036C233.342 10.036 235.584 11.0113 237.079 12.962C238.573 14.8873 239.321 17.5093 239.321 20.828C239.321 23.26 238.928 25.3373 238.143 27.06C237.357 28.7573 236.23 30.062 234.761 30.974C233.317 31.8607 231.607 32.304 229.631 32.304ZM230.011 11.67C228.111 11.67 226.641 12.4553 225.603 14.026C224.564 15.5967 224.045 17.9907 224.045 21.208C224.045 24.324 224.526 26.68 225.489 28.276C226.477 29.872 227.959 30.67 229.935 30.67C231.809 30.67 233.266 29.8847 234.305 28.314C235.369 26.7433 235.901 24.3367 235.901 21.094C235.901 18.0033 235.407 15.66 234.419 14.064C233.456 12.468 231.987 11.67 230.011 11.67ZM252.882 32.304C249.538 32.304 247.055 31.3667 245.434 29.492C243.812 27.592 243.002 24.9447 243.002 21.55C243.002 18.9913 243.432 16.8633 244.294 15.166C245.155 13.4687 246.358 12.1893 247.904 11.328C249.449 10.4667 251.286 10.036 253.414 10.036C254.3 10.036 255.288 10.1247 256.378 10.302C257.492 10.454 258.518 10.7073 259.456 11.062C259.481 11.8727 259.468 12.734 259.418 13.646C259.367 14.558 259.278 15.47 259.152 16.382H257.366L256.72 13.266C256.644 13.0633 256.555 12.886 256.454 12.734C256.352 12.582 256.2 12.4427 255.998 12.316C255.694 12.1387 255.238 11.974 254.63 11.822C254.022 11.67 253.388 11.594 252.73 11.594C250.804 11.594 249.284 12.3413 248.17 13.836C247.055 15.3307 246.498 17.7373 246.498 21.056C246.498 22.9813 246.7 24.6787 247.106 26.148C247.536 27.592 248.208 28.7193 249.12 29.53C250.057 30.3407 251.273 30.746 252.768 30.746C253.376 30.746 253.971 30.6827 254.554 30.556C255.162 30.4293 255.668 30.214 256.074 29.91C256.226 29.7833 256.352 29.6567 256.454 29.53C256.58 29.378 256.682 29.188 256.758 28.96L257.708 26.11L259.494 26.262C259.519 27.022 259.494 27.8327 259.418 28.694C259.367 29.5553 259.278 30.3913 259.152 31.202C258.341 31.5313 257.366 31.7973 256.226 32C255.111 32.2027 253.996 32.304 252.882 32.304ZM262.702 32V30.594L264.868 30.176C265.375 30.1 265.628 29.8213 265.628 29.34V13.114C265.628 12.6073 265.375 12.316 264.868 12.24L262.702 11.784V10.378H271.594V11.784L269.428 12.24C268.922 12.316 268.668 12.6073 268.668 13.114V29.34C268.668 29.796 268.934 30.0747 269.466 30.176L271.784 30.594V32H262.702ZM267.984 25.388V22.994L277.294 12.316L274.824 11.784V10.378H282.31V11.784L280.334 12.24C279.954 12.316 279.638 12.4807 279.384 12.734L272.506 20.372L267.984 25.388ZM278.548 32C278.219 32 277.852 31.734 277.446 31.202C277.041 30.6447 276.572 29.8973 276.04 28.96L273.684 24.666C273.203 23.8047 272.76 23.07 272.354 22.462C271.974 21.8287 271.594 21.246 271.214 20.714L273.152 18.548C273.735 19.156 274.28 19.84 274.786 20.6C275.293 21.3347 275.888 22.272 276.572 23.412L280.068 29.112C280.271 29.4667 280.461 29.72 280.638 29.872C280.816 30.024 281.069 30.138 281.398 30.214L282.918 30.594V32H278.548Z" fill="#000080"/>
<path d="M122.367 38.8102C122.266 38.4993 122.132 38.2208 121.966 37.9746C121.802 37.7253 121.607 37.513 121.379 37.3375C121.155 37.1621 120.899 37.0282 120.613 36.9359C120.327 36.8436 120.013 36.7974 119.671 36.7974C119.111 36.7974 118.602 36.942 118.143 37.2313C117.685 37.5206 117.32 37.9469 117.049 38.5101C116.778 39.0733 116.643 39.7643 116.643 40.5829C116.643 41.4016 116.78 42.0925 117.054 42.6557C117.328 43.2189 117.698 43.6452 118.166 43.9345C118.634 44.2238 119.16 44.3684 119.745 44.3684C120.287 44.3684 120.764 44.253 121.176 44.0222C121.592 43.7883 121.915 43.459 122.146 43.0343C122.379 42.6065 122.496 42.1033 122.496 41.5247L122.847 41.5985H120.004V40.5829H123.604V41.5985C123.604 42.3772 123.438 43.0543 123.106 43.6298C122.776 44.2053 122.321 44.6516 121.739 44.9686C121.161 45.2825 120.496 45.4394 119.745 45.4394C118.908 45.4394 118.172 45.2425 117.538 44.8485C116.907 44.4546 116.415 43.8945 116.061 43.1681C115.71 42.4418 115.535 41.5801 115.535 40.5829C115.535 39.835 115.635 39.1626 115.835 38.5655C116.038 37.9654 116.324 37.4545 116.694 37.0328C117.063 36.6112 117.5 36.288 118.005 36.0634C118.509 35.8387 119.065 35.7264 119.671 35.7264C120.17 35.7264 120.634 35.8018 121.065 35.9526C121.499 36.1003 121.886 36.3111 122.224 36.585C122.566 36.8559 122.85 37.1806 123.078 37.5591C123.306 37.9346 123.463 38.3516 123.549 38.8102H122.367ZM128.391 45.4579C127.707 45.4579 127.118 45.3071 126.622 45.0055C126.13 44.7008 125.75 44.2761 125.482 43.7313C125.217 43.1835 125.085 42.5464 125.085 41.8201C125.085 41.0938 125.217 40.4536 125.482 39.8997C125.75 39.3426 126.122 38.9087 126.599 38.5978C127.079 38.2839 127.64 38.1269 128.28 38.1269C128.649 38.1269 129.014 38.1885 129.374 38.3116C129.734 38.4347 130.062 38.6348 130.357 38.9117C130.653 39.1857 130.888 39.5488 131.063 40.0012C131.239 40.4536 131.327 41.0107 131.327 41.6724V42.134H125.861V41.1923H130.219C130.219 40.7922 130.139 40.4352 129.979 40.1213C129.822 39.8073 129.597 39.5596 129.305 39.378C129.015 39.1964 128.674 39.1056 128.28 39.1056C127.846 39.1056 127.47 39.2134 127.153 39.4288C126.839 39.6411 126.598 39.9181 126.429 40.2598C126.259 40.6014 126.175 40.9676 126.175 41.3585V41.9863C126.175 42.5218 126.267 42.9758 126.452 43.3482C126.639 43.7175 126.899 43.9991 127.232 44.193C127.564 44.3838 127.95 44.4792 128.391 44.4792C128.677 44.4792 128.935 44.4392 129.166 44.3592C129.4 44.2761 129.602 44.153 129.771 43.9899C129.94 43.8237 130.071 43.6175 130.163 43.3713L131.216 43.6667C131.105 44.0237 130.919 44.3376 130.657 44.6085C130.396 44.8762 130.072 45.0855 129.688 45.2363C129.303 45.384 128.871 45.4579 128.391 45.4579ZM132.984 45.3102V38.2193H134.036V39.2903H134.11C134.24 38.9394 134.473 38.6548 134.812 38.4362C135.151 38.2177 135.532 38.1085 135.957 38.1085C136.037 38.1085 136.137 38.11 136.257 38.1131C136.377 38.1162 136.468 38.1208 136.529 38.1269V39.2349C136.492 39.2257 136.408 39.2118 136.275 39.1933C136.146 39.1718 136.009 39.161 135.865 39.161C135.52 39.161 135.212 39.2334 134.941 39.378C134.674 39.5196 134.461 39.7165 134.304 39.9689C134.15 40.2182 134.073 40.5029 134.073 40.823V45.3102H132.984ZM140.578 45.4579C139.895 45.4579 139.305 45.3071 138.81 45.0055C138.317 44.7008 137.937 44.2761 137.67 43.7313C137.405 43.1835 137.273 42.5464 137.273 41.8201C137.273 41.0938 137.405 40.4536 137.67 39.8997C137.937 39.3426 138.31 38.9087 138.787 38.5978C139.267 38.2839 139.827 38.1269 140.467 38.1269C140.837 38.1269 141.201 38.1885 141.561 38.3116C141.921 38.4347 142.249 38.6348 142.545 38.9117C142.84 39.1857 143.076 39.5488 143.251 40.0012C143.426 40.4536 143.514 41.0107 143.514 41.6724V42.134H138.048V41.1923H142.406C142.406 40.7922 142.326 40.4352 142.166 40.1213C142.009 39.8073 141.784 39.5596 141.492 39.378C141.203 39.1964 140.861 39.1056 140.467 39.1056C140.033 39.1056 139.658 39.2134 139.341 39.4288C139.027 39.6411 138.785 39.9181 138.616 40.2598C138.447 40.6014 138.362 40.9676 138.362 41.3585V41.9863C138.362 42.5218 138.454 42.9758 138.639 43.3482C138.827 43.7175 139.087 43.9991 139.419 44.193C139.752 44.3838 140.138 44.4792 140.578 44.4792C140.864 44.4792 141.123 44.4392 141.354 44.3592C141.587 44.2761 141.789 44.153 141.958 43.9899C142.128 43.8237 142.258 43.6175 142.351 43.3713L143.403 43.6667C143.292 44.0237 143.106 44.3376 142.845 44.6085C142.583 44.8762 142.26 45.0855 141.875 45.2363C141.491 45.384 141.058 45.4579 140.578 45.4579ZM146.261 41.0446V45.3102H145.171V38.2193H146.224V39.3272H146.316C146.482 38.9671 146.735 38.6778 147.073 38.4593C147.412 38.2377 147.849 38.1269 148.384 38.1269C148.865 38.1269 149.285 38.2254 149.645 38.4224C150.005 38.6163 150.285 38.9117 150.485 39.3088C150.685 39.7027 150.785 40.2013 150.785 40.8045V45.3102H149.696V40.8784C149.696 40.3213 149.551 39.8874 149.262 39.5765C148.972 39.2626 148.575 39.1056 148.071 39.1056C147.723 39.1056 147.412 39.181 147.138 39.3318C146.867 39.4826 146.653 39.7027 146.496 39.992C146.339 40.2813 146.261 40.6322 146.261 41.0446ZM155.657 45.4579C154.992 45.4579 154.419 45.3009 153.939 44.987C153.459 44.6731 153.09 44.2407 152.831 43.6898C152.573 43.1389 152.444 42.5095 152.444 41.8017C152.444 41.0815 152.576 40.446 152.841 39.8951C153.108 39.3411 153.481 38.9087 153.958 38.5978C154.438 38.2839 154.998 38.1269 155.638 38.1269C156.137 38.1269 156.586 38.2193 156.986 38.4039C157.386 38.5886 157.714 38.8471 157.969 39.1795C158.225 39.5119 158.383 39.8997 158.445 40.3429H157.355C157.272 40.0197 157.088 39.7335 156.801 39.4842C156.518 39.2318 156.137 39.1056 155.657 39.1056C155.232 39.1056 154.859 39.2164 154.539 39.438C154.222 39.6565 153.975 39.9658 153.796 40.3659C153.621 40.763 153.533 41.2292 153.533 41.7647C153.533 42.3125 153.619 42.7896 153.792 43.1958C153.967 43.6021 154.213 43.9175 154.53 44.1422C154.85 44.3669 155.226 44.4792 155.657 44.4792C155.94 44.4792 156.197 44.43 156.428 44.3315C156.658 44.233 156.854 44.0914 157.014 43.9068C157.174 43.7221 157.288 43.5005 157.355 43.242H158.445C158.383 43.6606 158.231 44.0376 157.988 44.373C157.748 44.7054 157.429 44.9701 157.032 45.1671C156.638 45.361 156.18 45.4579 155.657 45.4579ZM160.038 45.3102V38.2193H161.127V45.3102H160.038ZM160.592 37.0375C160.379 37.0375 160.196 36.9651 160.042 36.8205C159.891 36.6758 159.816 36.5019 159.816 36.2988C159.816 36.0957 159.891 35.9218 160.042 35.7772C160.196 35.6325 160.379 35.5602 160.592 35.5602C160.804 35.5602 160.986 35.6325 161.136 35.7772C161.29 35.9218 161.367 36.0957 161.367 36.2988C161.367 36.5019 161.29 36.6758 161.136 36.8205C160.986 36.9651 160.804 37.0375 160.592 37.0375ZM165.209 45.4764C164.76 45.4764 164.352 45.3917 163.986 45.2225C163.62 45.0501 163.329 44.8024 163.113 44.4792C162.898 44.153 162.79 43.759 162.79 43.2974C162.79 42.8911 162.87 42.5618 163.03 42.3095C163.19 42.054 163.404 41.854 163.672 41.7093C163.94 41.5647 164.235 41.457 164.558 41.3862C164.885 41.3123 165.212 41.2538 165.542 41.2107C165.972 41.1554 166.322 41.1138 166.59 41.0861C166.86 41.0553 167.057 41.0045 167.18 40.9338C167.307 40.863 167.37 40.7399 167.37 40.5644V40.5275C167.37 40.072 167.245 39.7181 166.996 39.4657C166.75 39.2134 166.376 39.0872 165.874 39.0872C165.354 39.0872 164.946 39.201 164.651 39.4288C164.355 39.6565 164.147 39.8997 164.027 40.1582L162.993 39.7889C163.178 39.358 163.424 39.0225 163.732 38.7825C164.043 38.5393 164.381 38.3701 164.748 38.2747C165.117 38.1762 165.48 38.1269 165.837 38.1269C166.065 38.1269 166.326 38.1546 166.622 38.21C166.92 38.2624 167.208 38.3716 167.485 38.5378C167.765 38.704 167.998 38.9548 168.182 39.2903C168.367 39.6258 168.459 40.0751 168.459 40.6383V45.3102H167.37V44.35H167.314C167.24 44.5038 167.117 44.6685 166.945 44.8439C166.773 45.0193 166.543 45.1686 166.257 45.2917C165.971 45.4148 165.622 45.4764 165.209 45.4764ZM165.375 44.4977C165.806 44.4977 166.169 44.413 166.465 44.2438C166.763 44.0745 166.988 43.856 167.139 43.5882C167.293 43.3205 167.37 43.0389 167.37 42.7434V41.7463C167.324 41.8017 167.222 41.8524 167.065 41.8986C166.911 41.9417 166.733 41.9802 166.53 42.014C166.329 42.0448 166.134 42.0725 165.943 42.0971C165.756 42.1187 165.603 42.1371 165.486 42.1525C165.203 42.1894 164.938 42.2495 164.692 42.3326C164.449 42.4126 164.252 42.5341 164.101 42.6973C163.954 42.8573 163.88 43.0758 163.88 43.3528C163.88 43.7313 164.02 44.0176 164.3 44.2115C164.583 44.4023 164.941 44.4977 165.375 44.4977ZM170.448 45.3102V38.2193H171.5V39.3272H171.593C171.74 38.9487 171.979 38.6548 172.308 38.4455C172.638 38.2331 173.033 38.1269 173.495 38.1269C173.962 38.1269 174.352 38.2331 174.663 38.4455C174.977 38.6548 175.221 38.9487 175.397 39.3272H175.47C175.652 38.961 175.924 38.6701 176.288 38.4547C176.651 38.2362 177.086 38.1269 177.594 38.1269C178.228 38.1269 178.747 38.3255 179.15 38.7225C179.553 39.1164 179.755 39.7304 179.755 40.5644V45.3102H178.665V40.5644C178.665 40.0412 178.522 39.6673 178.236 39.4426C177.95 39.218 177.613 39.1056 177.225 39.1056C176.726 39.1056 176.34 39.2564 176.066 39.558C175.792 39.8566 175.655 40.2351 175.655 40.6937V45.3102H174.547V40.4536C174.547 40.0505 174.416 39.7258 174.155 39.4796C173.893 39.2303 173.556 39.1056 173.144 39.1056C172.861 39.1056 172.596 39.181 172.35 39.3318C172.107 39.4826 171.91 39.6919 171.759 39.9597C171.611 40.2244 171.537 40.5306 171.537 40.8784V45.3102H170.448ZM184.72 45.4579C184.036 45.4579 183.447 45.3071 182.951 45.0055C182.459 44.7008 182.079 44.2761 181.811 43.7313C181.547 43.1835 181.414 42.5464 181.414 41.8201C181.414 41.0938 181.547 40.4536 181.811 39.8997C182.079 39.3426 182.451 38.9087 182.928 38.5978C183.409 38.2839 183.969 38.1269 184.609 38.1269C184.978 38.1269 185.343 38.1885 185.703 38.3116C186.063 38.4347 186.391 38.6348 186.686 38.9117C186.982 39.1857 187.217 39.5488 187.393 40.0012C187.568 40.4536 187.656 41.0107 187.656 41.6724V42.134H182.19V41.1923H186.548C186.548 40.7922 186.468 40.4352 186.308 40.1213C186.151 39.8073 185.926 39.5596 185.634 39.378C185.344 39.1964 185.003 39.1056 184.609 39.1056C184.175 39.1056 183.799 39.2134 183.482 39.4288C183.168 39.6411 182.927 39.9181 182.758 40.2598C182.588 40.6014 182.504 40.9676 182.504 41.3585V41.9863C182.504 42.5218 182.596 42.9758 182.781 43.3482C182.968 43.7175 183.228 43.9991 183.561 44.193C183.893 44.3838 184.28 44.4792 184.72 44.4792C185.006 44.4792 185.264 44.4392 185.495 44.3592C185.729 44.2761 185.931 44.153 186.1 43.9899C186.269 43.8237 186.4 43.6175 186.492 43.3713L187.545 43.6667C187.434 44.0237 187.248 44.3376 186.986 44.6085C186.725 44.8762 186.402 45.0855 186.017 45.2363C185.632 45.384 185.2 45.4579 184.72 45.4579ZM190.402 41.0446V45.3102H189.313V38.2193H190.366V39.3272H190.458C190.624 38.9671 190.876 38.6778 191.215 38.4593C191.554 38.2377 191.991 38.1269 192.526 38.1269C193.006 38.1269 193.426 38.2254 193.786 38.4224C194.146 38.6163 194.427 38.9117 194.627 39.3088C194.827 39.7027 194.927 40.2013 194.927 40.8045V45.3102H193.837V40.8784C193.837 40.3213 193.692 39.8874 193.403 39.5765C193.114 39.2626 192.717 39.1056 192.212 39.1056C191.864 39.1056 191.554 39.181 191.28 39.3318C191.009 39.4826 190.795 39.7027 190.638 39.992C190.481 40.2813 190.402 40.6322 190.402 41.0446ZM200.001 38.2193V39.1426H196.327V38.2193H200.001ZM197.398 36.5204H198.487V43.2789C198.487 43.5867 198.532 43.8175 198.621 43.9714C198.713 44.1222 198.83 44.2238 198.972 44.2761C199.116 44.3253 199.269 44.35 199.429 44.35C199.549 44.35 199.647 44.3438 199.724 44.3315C199.801 44.3161 199.863 44.3038 199.909 44.2946L200.131 45.2732C200.057 45.3009 199.954 45.3286 199.821 45.3563C199.689 45.3871 199.521 45.4025 199.318 45.4025C199.01 45.4025 198.709 45.3363 198.413 45.204C198.121 45.0717 197.878 44.8701 197.684 44.5992C197.493 44.3284 197.398 43.9868 197.398 43.5744V36.5204ZM204.445 45.4579C203.805 45.4579 203.243 45.3056 202.76 45.0009C202.28 44.6962 201.904 44.2699 201.633 43.7221C201.365 43.1743 201.232 42.5341 201.232 41.8017C201.232 41.063 201.365 40.4183 201.633 39.8674C201.904 39.3165 202.28 38.8887 202.76 38.584C203.243 38.2793 203.805 38.1269 204.445 38.1269C205.085 38.1269 205.645 38.2793 206.125 38.584C206.608 38.8887 206.984 39.3165 207.251 39.8674C207.522 40.4183 207.658 41.063 207.658 41.8017C207.658 42.5341 207.522 43.1743 207.251 43.7221C206.984 44.2699 206.608 44.6962 206.125 45.0009C205.645 45.3056 205.085 45.4579 204.445 45.4579ZM204.445 44.4792C204.931 44.4792 205.331 44.3546 205.645 44.1053C205.959 43.856 206.191 43.5282 206.342 43.122C206.493 42.7157 206.568 42.2756 206.568 41.8017C206.568 41.3277 206.493 40.8861 206.342 40.4767C206.191 40.0674 205.959 39.7366 205.645 39.4842C205.331 39.2318 204.931 39.1056 204.445 39.1056C203.958 39.1056 203.558 39.2318 203.244 39.4842C202.93 39.7366 202.698 40.0674 202.547 40.4767C202.396 40.8861 202.321 41.3277 202.321 41.8017C202.321 42.2756 202.396 42.7157 202.547 43.122C202.698 43.5282 202.93 43.856 203.244 44.1053C203.558 44.3546 203.958 44.4792 204.445 44.4792ZM215.655 45.4579C215.064 45.4579 214.542 45.3086 214.09 45.0101C213.637 44.7085 213.283 44.2838 213.028 43.736C212.772 43.1851 212.645 42.5341 212.645 41.7832C212.645 41.0384 212.772 40.3921 213.028 39.8443C213.283 39.2964 213.639 38.8733 214.094 38.5747C214.55 38.2762 215.076 38.1269 215.673 38.1269C216.135 38.1269 216.499 38.2039 216.767 38.3578C217.038 38.5086 217.244 38.6809 217.386 38.8748C217.53 39.0656 217.643 39.2226 217.723 39.3457H217.815V35.8556H218.905V45.3102H217.852V44.2207H217.723C217.643 44.35 217.529 44.5131 217.381 44.71C217.233 44.9039 217.023 45.0778 216.749 45.2317C216.475 45.3825 216.11 45.4579 215.655 45.4579ZM215.802 44.4792C216.239 44.4792 216.609 44.3653 216.91 44.1376C217.212 43.9068 217.441 43.5882 217.598 43.182C217.755 42.7727 217.834 42.3002 217.834 41.7647C217.834 41.2354 217.757 40.7722 217.603 40.3752C217.449 39.9751 217.221 39.6642 216.92 39.4426C216.618 39.218 216.246 39.1056 215.802 39.1056C215.341 39.1056 214.956 39.2241 214.648 39.4611C214.344 39.695 214.114 40.0135 213.96 40.4167C213.81 40.8168 213.734 41.2661 213.734 41.7647C213.734 42.2695 213.811 42.728 213.965 43.1404C214.122 43.5498 214.353 43.876 214.657 44.1191C214.965 44.3592 215.347 44.4792 215.802 44.4792ZM224.024 45.4579C223.341 45.4579 222.752 45.3071 222.256 45.0055C221.764 44.7008 221.384 44.2761 221.116 43.7313C220.851 43.1835 220.719 42.5464 220.719 41.8201C220.719 41.0938 220.851 40.4536 221.116 39.8997C221.384 39.3426 221.756 38.9087 222.233 38.5978C222.713 38.2839 223.273 38.1269 223.913 38.1269C224.283 38.1269 224.648 38.1885 225.008 38.3116C225.368 38.4347 225.695 38.6348 225.991 38.9117C226.286 39.1857 226.522 39.5488 226.697 40.0012C226.873 40.4536 226.96 41.0107 226.96 41.6724V42.134H221.494V41.1923H225.852C225.852 40.7922 225.772 40.4352 225.612 40.1213C225.455 39.8073 225.231 39.5596 224.938 39.378C224.649 39.1964 224.307 39.1056 223.913 39.1056C223.48 39.1056 223.104 39.2134 222.787 39.4288C222.473 39.6411 222.232 39.9181 222.062 40.2598C221.893 40.6014 221.808 40.9676 221.808 41.3585V41.9863C221.808 42.5218 221.901 42.9758 222.085 43.3482C222.273 43.7175 222.533 43.9991 222.866 44.193C223.198 44.3838 223.584 44.4792 224.024 44.4792C224.311 44.4792 224.569 44.4392 224.8 44.3592C225.034 44.2761 225.235 44.153 225.405 43.9899C225.574 43.8237 225.705 43.6175 225.797 43.3713L226.85 43.6667C226.739 44.0237 226.553 44.3376 226.291 44.6085C226.029 44.8762 225.706 45.0855 225.322 45.2363C224.937 45.384 224.504 45.4579 224.024 45.4579ZM235.247 45.4579C234.564 45.4579 233.974 45.3071 233.479 45.0055C232.986 44.7008 232.606 44.2761 232.339 43.7313C232.074 43.1835 231.942 42.5464 231.942 41.8201C231.942 41.0938 232.074 40.4536 232.339 39.8997C232.606 39.3426 232.979 38.9087 233.456 38.5978C233.936 38.2839 234.496 38.1269 235.136 38.1269C235.505 38.1269 235.87 38.1885 236.23 38.3116C236.59 38.4347 236.918 38.6348 237.214 38.9117C237.509 39.1857 237.744 39.5488 237.92 40.0012C238.095 40.4536 238.183 41.0107 238.183 41.6724V42.134H232.717V41.1923H237.075C237.075 40.7922 236.995 40.4352 236.835 40.1213C236.678 39.8073 236.453 39.5596 236.161 39.378C235.872 39.1964 235.53 39.1056 235.136 39.1056C234.702 39.1056 234.327 39.2134 234.01 39.4288C233.696 39.6411 233.454 39.9181 233.285 40.2598C233.116 40.6014 233.031 40.9676 233.031 41.3585V41.9863C233.031 42.5218 233.123 42.9758 233.308 43.3482C233.496 43.7175 233.756 43.9991 234.088 44.193C234.421 44.3838 234.807 44.4792 235.247 44.4792C235.533 44.4792 235.792 44.4392 236.023 44.3592C236.256 44.2761 236.458 44.153 236.627 43.9899C236.797 43.8237 236.927 43.6175 237.02 43.3713L238.072 43.6667C237.961 44.0237 237.775 44.3376 237.514 44.6085C237.252 44.8762 236.929 45.0855 236.544 45.2363C236.159 45.384 235.727 45.4579 235.247 45.4579ZM244.863 39.8073L243.884 40.0843C243.823 39.9212 243.732 39.7627 243.612 39.6088C243.495 39.4519 243.335 39.3226 243.132 39.221C242.929 39.1195 242.669 39.0687 242.352 39.0687C241.918 39.0687 241.556 39.1687 241.267 39.3688C240.981 39.5657 240.838 39.8166 240.838 40.1213C240.838 40.3921 240.936 40.606 241.133 40.763C241.33 40.9199 241.638 41.0507 242.056 41.1554L243.109 41.4139C243.743 41.5678 244.215 41.8032 244.526 42.1202C244.837 42.4341 244.992 42.8388 244.992 43.3343C244.992 43.7406 244.875 44.1037 244.641 44.4238C244.411 44.7439 244.088 44.9963 243.672 45.1809C243.257 45.3656 242.773 45.4579 242.222 45.4579C241.499 45.4579 240.901 45.3009 240.427 44.987C239.953 44.6731 239.653 44.2145 239.526 43.6113L240.561 43.3528C240.659 43.7344 240.845 44.0206 241.119 44.2115C241.396 44.4023 241.758 44.4977 242.204 44.4977C242.712 44.4977 243.115 44.39 243.413 44.1745C243.715 43.956 243.866 43.6944 243.866 43.3897C243.866 43.1435 243.78 42.9373 243.607 42.7711C243.435 42.6018 243.17 42.4757 242.813 42.3926L241.632 42.1156C240.982 41.9617 240.505 41.7232 240.2 41.4C239.899 41.0738 239.748 40.666 239.748 40.1767C239.748 39.7766 239.86 39.4226 240.085 39.1149C240.313 38.8071 240.622 38.5655 241.013 38.3901C241.407 38.2147 241.853 38.1269 242.352 38.1269C243.053 38.1269 243.604 38.2808 244.004 38.5886C244.408 38.8964 244.694 39.3026 244.863 39.8073ZM249.716 38.2193V39.1426H246.041V38.2193H249.716ZM247.112 36.5204H248.202V43.2789C248.202 43.5867 248.247 43.8175 248.336 43.9714C248.428 44.1222 248.545 44.2238 248.687 44.2761C248.831 44.3253 248.984 44.35 249.144 44.35C249.264 44.35 249.362 44.3438 249.439 44.3315C249.516 44.3161 249.578 44.3038 249.624 44.2946L249.845 45.2732C249.772 45.3009 249.668 45.3286 249.536 45.3563C249.404 45.3871 249.236 45.4025 249.033 45.4025C248.725 45.4025 248.424 45.3363 248.128 45.204C247.836 45.0717 247.593 44.8701 247.399 44.5992C247.208 44.3284 247.112 43.9868 247.112 43.5744V36.5204ZM254.16 45.4579C253.519 45.4579 252.958 45.3056 252.474 45.0009C251.994 44.6962 251.619 44.2699 251.348 43.7221C251.08 43.1743 250.946 42.5341 250.946 41.8017C250.946 41.063 251.08 40.4183 251.348 39.8674C251.619 39.3165 251.994 38.8887 252.474 38.584C252.958 38.2793 253.519 38.1269 254.16 38.1269C254.8 38.1269 255.36 38.2793 255.84 38.584C256.323 38.8887 256.699 39.3165 256.966 39.8674C257.237 40.4183 257.373 41.063 257.373 41.8017C257.373 42.5341 257.237 43.1743 256.966 43.7221C256.699 44.2699 256.323 44.6962 255.84 45.0009C255.36 45.3056 254.8 45.4579 254.16 45.4579ZM254.16 44.4792C254.646 44.4792 255.046 44.3546 255.36 44.1053C255.674 43.856 255.906 43.5282 256.057 43.122C256.208 42.7157 256.283 42.2756 256.283 41.8017C256.283 41.3277 256.208 40.8861 256.057 40.4767C255.906 40.0674 255.674 39.7366 255.36 39.4842C255.046 39.2318 254.646 39.1056 254.16 39.1056C253.673 39.1056 253.273 39.2318 252.959 39.4842C252.645 39.7366 252.413 40.0674 252.262 40.4767C252.111 40.8861 252.036 41.3277 252.036 41.8017C252.036 42.2756 252.111 42.7157 252.262 43.122C252.413 43.5282 252.645 43.856 252.959 44.1053C253.273 44.3546 253.673 44.4792 254.16 44.4792ZM263.874 47.9693V44.2207H263.781C263.701 44.35 263.588 44.5131 263.44 44.71C263.292 44.9039 263.081 45.0778 262.807 45.2317C262.533 45.3825 262.169 45.4579 261.713 45.4579C261.122 45.4579 260.601 45.3086 260.148 45.0101C259.696 44.7085 259.342 44.2838 259.086 43.736C258.831 43.1851 258.703 42.5341 258.703 41.7832C258.703 41.0384 258.831 40.3921 259.086 39.8443C259.342 39.2964 259.697 38.8733 260.153 38.5747C260.608 38.2762 261.135 38.1269 261.732 38.1269C262.193 38.1269 262.558 38.2039 262.826 38.3578C263.097 38.5086 263.303 38.6809 263.444 38.8748C263.589 39.0656 263.701 39.2226 263.781 39.3457H263.911V38.2193H264.963V47.9693H263.874ZM261.861 44.4792C262.298 44.4792 262.667 44.3653 262.969 44.1376C263.271 43.9068 263.5 43.5882 263.657 43.182C263.814 42.7727 263.892 42.3002 263.892 41.7647C263.892 41.2354 263.815 40.7722 263.661 40.3752C263.507 39.9751 263.28 39.6642 262.978 39.4426C262.677 39.218 262.304 39.1056 261.861 39.1056C261.399 39.1056 261.015 39.2241 260.707 39.4611C260.402 39.695 260.173 40.0135 260.019 40.4167C259.868 40.8168 259.793 41.2661 259.793 41.7647C259.793 42.2695 259.87 42.728 260.024 43.1404C260.181 43.5498 260.411 43.876 260.716 44.1191C261.024 44.3592 261.405 44.4792 261.861 44.4792ZM271.426 42.411V38.2193H272.516V45.3102H271.426V44.1099H271.352C271.186 44.47 270.928 44.7762 270.577 45.0286C270.226 45.2779 269.783 45.4025 269.247 45.4025C268.804 45.4025 268.41 45.3056 268.065 45.1117C267.721 44.9147 267.45 44.6192 267.253 44.2253C267.056 43.8283 266.958 43.3282 266.958 42.725V38.2193H268.047V42.6511C268.047 43.1681 268.192 43.5805 268.481 43.8883C268.773 44.1961 269.146 44.35 269.598 44.35C269.869 44.35 270.144 44.2807 270.425 44.1422C270.708 44.0037 270.945 43.7914 271.135 43.5051C271.329 43.2189 271.426 42.8542 271.426 42.411ZM277.484 45.4579C276.801 45.4579 276.212 45.3071 275.716 45.0055C275.224 44.7008 274.844 44.2761 274.576 43.7313C274.311 43.1835 274.179 42.5464 274.179 41.8201C274.179 41.0938 274.311 40.4536 274.576 39.8997C274.844 39.3426 275.216 38.9087 275.693 38.5978C276.173 38.2839 276.733 38.1269 277.373 38.1269C277.743 38.1269 278.107 38.1885 278.468 38.3116C278.828 38.4347 279.155 38.6348 279.451 38.9117C279.746 39.1857 279.982 39.5488 280.157 40.0012C280.333 40.4536 280.42 41.0107 280.42 41.6724V42.134H274.954V41.1923H279.312C279.312 40.7922 279.232 40.4352 279.072 40.1213C278.915 39.8073 278.691 39.5596 278.398 39.378C278.109 39.1964 277.767 39.1056 277.373 39.1056C276.94 39.1056 276.564 39.2134 276.247 39.4288C275.933 39.6411 275.692 39.9181 275.522 40.2598C275.353 40.6014 275.268 40.9676 275.268 41.3585V41.9863C275.268 42.5218 275.361 42.9758 275.545 43.3482C275.733 43.7175 275.993 43.9991 276.326 44.193C276.658 44.3838 277.044 44.4792 277.484 44.4792C277.77 44.4792 278.029 44.4392 278.26 44.3592C278.494 44.2761 278.695 44.153 278.865 43.9899C279.034 43.8237 279.165 43.6175 279.257 43.3713L280.31 43.6667C280.199 44.0237 280.013 44.3376 279.751 44.6085C279.489 44.8762 279.166 45.0855 278.781 45.2363C278.397 45.384 277.964 45.4579 277.484 45.4579Z" fill="black"/>
</svg>